<svg width="39.99999999999999" height="39.99999999999999" xmlns="http://www.w3.org/2000/svg">
 <g>
  <title>background</title>
  <rect x="-1" y="-1" width="4.877696" height="4.877696" id="canvas_background" fill="none"/>
 </g>

 <g>
  <title>Layer 1</title>
  <circle cx="20.35484" cy="20" r="20" stroke-width="3" fill="white" id="svg_1"/>
  <path d="m27.2504,10.7998l-14.50077,0c-1.51611,0 -2.74963,1.23328 -2.74963,2.74963l0,8.87417c0,1.5129 1.22815,2.7442 2.73987,2.7496l0,4.027l5.78723,-4.027l8.7233,0c1.5161,0 2.7496,-1.2335 2.7496,-2.7496l0,-8.87417c0,-1.51635 -1.2335,-2.74963 -2.7496,-2.74963zm1.5777,11.6238c0,0.8699 -0.7077,1.5777 -1.5777,1.5777l-9.09098,0l-4.24768,2.9558l0,-2.9558l-1.16211,0c-0.86999,0 -1.57775,-0.7078 -1.57775,-1.5777l0,-8.87417c0,-0.87011 0.70776,-1.57775 1.57775,-1.57775l14.50077,0c0.87,0 1.5777,0.70764 1.5777,1.57775l0,8.87417z" fill="#ABABAB" id="svg_2"/>
  <path id="svg_3" fill="#ABABAB" d="m15.352907,20.000001l9.294185,0l0,1.171873l-9.294185,0l0,-1.171873z"/>
  <path id="svg_4" fill="#ABABAB" d="m15.352907,17.999999l9.294185,0l0,1.171873l-9.294185,0l0,-1.171873z"/>
  <path id="svg_5" fill="#ABABAB" d="m15.352908,16l9.294185,0l0,1.171873l-9.294185,0l0,-1.171873z"/>
 </g>
</svg>